# xmcd
#
# Track frame offsets:
#	150
#	13933
#	29982
#	46791
#	62534
#	80482
#	96194
#	107749
#	121187
#	137954
#	154939
#
# Disc length: 2259 seconds
#
# Revision: 0
# Processed by: cddbd v1.5.2PL0 Copyright (c) Steve Scherf et al.
# Submitted via: FairStars CD Ripper 1.80
#
DISCID=9308d10b
DTITLE=Joe Walsh - Borderland
DYEAR=2016
DGENRE=Folk
TTITLE0=Red Skies
TTITLE1=Never More Will Roam
TTITLE2=Cumberland Gap
TTITLE3=Pine Tree Waltz
TTITLE4=The Berry's Walk Out
TTITLE5=Innisfree
TTITLE6=The Bee - Loud Glade
TTITLE7=There But For Fortune
TTITLE8=Pogo Big
TTITLE9=The Stream
TTITLE10=Closer
EXTD=
EXTT0=
EXTT1=
EXTT2=
EXTT3=
EXTT4=
EXTT5=
EXTT6=
EXTT7=
EXTT8=
EXTT9=
EXTT10=
PLAYORDER=
